<svg width="1588px" height="1800px" viewBox="0 0 1588 1800" version="1.1" xmlns="http://www.w3.org/2000/svg" xmlns:xlink="http://www.w3.org/1999/xlink">
    <defs>

        <linearGradient x1="50%" y1="1.24313767%" x2="50%" y2="100%" id="linearGradient-1">

            <stop stop-color="#F29111" offset="0%"></stop>

            <stop stop-color="#F29111" stop-opacity="0.280457823" offset="100%"></stop>

        </linearGradient>

    </defs>

    <g id="Page-1" stroke="none" stroke-width="1" fill="none" fill-rule="evenodd">

        <g id="Group">

            <g id="html5-without-wordmark-black-white" fill-rule="nonzero">

                <polygon id="Path" fill="#00758F" points="144.867 1620.068 0.424 0 1587.576 0 1442.982 1619.811 793.033 1800"></polygon>

                <polygon id="Path" fill="#1087A1" points="794.001 1662.27 1319.193 1516.666 1442.756 132.468 794.001 132.468"></polygon>

            </g>

            <g id="mysql-seeklogo.com" transform="translate(283.000000, 372.000000)">

                <path d="M459.425255,812.00736 L379.502045,737.681076 L327.383878,649.596393 L287.830766,556.895584 L287.830766,543.45423 L260,584.410375 L250.217003,649.596393 L242.263284,702.954785 L204,692.396115 L166.50902,614.487021 L166.50902,502 L185.576876,414.111726 L193.276803,379.327973 L166.50902,346.445259 L131.734844,288.058929 L109.822612,230.424395 L79.0995171,162.733986 L42.5871111,113.833699 L17.7251555,73.8304676 L17.7251555,39.5590854 L51.7523236,16.8806913 L79.0995171,16.8806913 L116.07162,39.5590854 L166.50902,59.4840849 L193.276803,80.1944004 L238.575205,86.7307196 L327.383878,113.833699 L498.118282,239 L577.305909,334.770866 L645.470381,463.102994 L707.419364,614.487021 L751.382695,649.596393 L848.709207,682.091237 L924.88486,737.681076 C951.809068,767.398583 965.271172,782.257336 965.271172,782.257336 C965.271172,782.257336 939.63667,787.159177 888.367665,796.962857 L828.305356,812.00736 L814.399517,840.605358 L944.656627,932.932663 L1015.93363,994.632643 L459.425255,812.00736 Z" id="Path-2" stroke="#FFFFFF" stroke-width="20" fill="url(#linearGradient-1)"></path>

                <path d="M942.292287,776.523401 C886.630573,775.135687 843.491947,780.704222 807.310666,796.004623 C796.874093,800.176655 780.173801,800.181021 778.781461,813.395362 C784.351186,818.963969 785.04518,828.006314 789.91638,835.656487 C798.270964,849.564683 812.876039,868.352034 826.097472,878.092636 C840.706902,889.22097 855.320676,900.349303 870.62428,910.089906 C897.761141,926.786846 928.37668,936.522974 954.815195,953.219839 C970.127497,962.951565 985.426387,975.480927 1000.73433,985.915385 C1008.39058,991.475132 1013.25743,1000.52184 1023,1004 L1023,1001.91401 C1018.12862,995.651606 1016.73628,986.609261 1011.86943,979.652923 C1004.91607,972.696606 997.954005,966.43418 990.996292,959.477863 C970.817141,932.350831 945.770966,908.697809 918.634466,889.22097 C896.373331,873.916146 847.66498,853.04723 838.620564,827.307945 C838.620564,827.307945 837.922218,826.61407 837.228224,825.920198 C852.535995,824.528046 870.62428,818.963933 885.238233,814.787443 C908.896239,808.525053 930.463559,809.91717 954.815195,803.65911 C965.945766,800.87486 977.08086,797.396704 988.211427,793.918523 L988.211427,787.660539 C975.692871,775.135579 966.644291,758.443133 953.422855,746.61643 C917.940287,716.002509 878.974334,686.095578 838.620564,661.054498 C817.048893,647.141879 789.218034,638.09508 766.258738,626.272871 C757.913031,622.092051 743.993073,620.010481 739.126225,613.054092 C726.598838,597.749357 719.641124,577.578698 710.597004,559.489501 C690.426735,521.225528 670.937068,478.797987 653.543002,438.452211 C641.024441,411.320813 633.36831,384.189288 618.06045,359.148644 C546.397098,240.891382 468.469595,169.242015 348.796217,98.9806414 C323.051822,84.3741106 292.440632,78.1117121 259.738414,70.4615287 C242.348567,69.7632429 224.949841,68.3755335 207.555428,67.6772477 C196.424861,62.806896 185.289872,49.5925999 175.547278,43.3301454 C135.896332,18.2847753 33.6125478,-35.9693173 4.38936778,35.6799619 C-14.3973492,80.8961435 32.2202257,125.41372 48.2218998,148.372983 C60.0553056,164.371673 75.3587442,182.456281 83.7088893,200.545534 C88.5801956,212.363321 89.9681687,224.892611 94.8394749,237.413114 C105.974446,268.01383 116.406596,302.105785 131.020442,330.629642 C138.676574,345.236171 147.022297,360.54094 156.764855,373.755137 C162.330121,381.405312 172.068275,384.887891 174.159105,397.408376 C164.420987,411.320957 163.722552,432.189965 158.152828,449.580888 C133.10685,528.186179 142.84939,625.574886 178.331976,683.311221 C189.462544,700.697614 215.905229,738.966186 251.388087,724.355309 C282.697784,711.834768 275.740052,672.182795 284.784211,637.401205 C286.875077,629.048333 285.482628,623.488622 289.655499,617.924401 C289.659123,618.618277 289.655499,619.316534 289.655499,619.316534 C299.398039,638.793337 309.136211,657.576409 318.180334,677.052889 C339.751877,711.136182 377.321016,746.616014 408.630512,770.269488 C425.335227,782.7855 438.552201,804.352801 459.425255,812.00736 L459.425255,809.916914 L458.032842,809.916914 C453.855566,803.654508 447.59629,800.874572 442.030988,796.004335 C429.507969,783.483829 415.588138,768.179006 405.850019,754.266459 C376.63117,715.30829 350.882299,672.182831 327.922874,627.660802 C316.792307,606.098011 307.049767,582.444569 298.005608,560.88185 C293.828334,552.528998 293.828334,540.012914 286.870619,535.840918 C276.434065,551.141247 261.130627,564.360027 253.474496,583.143011 C240.261923,613.054272 238.865071,649.921943 233.993783,688.181422 C231.213306,688.879736 232.601334,688.181422 231.208903,689.573607 C208.94775,684.005004 201.291619,661.054498 192.941328,641.573237 C172.068203,592.185284 168.589364,512.881316 186.682049,455.843258 C191.553337,441.232346 212.426462,395.32235 204.076317,381.409695 C199.903446,368.190897 185.983614,360.540759 178.331904,350.1063 C169.287745,336.887521 159.545205,320.19502 153.285926,305.58427 C136.585635,266.630574 128.235526,223.500641 110.147317,184.542469 C101.797171,166.453401 87.1877466,147.674884 75.3587442,130.98232 C62.1417683,112.199425 47.5278861,98.9806414 37.0911876,76.7194775 C33.6167335,69.0692941 28.7410423,56.5488345 34.3063441,48.2003288 C35.6987749,42.6361966 38.4791971,40.5501654 44.048884,39.158005 C53.0930429,31.5034083 78.8374563,41.2439999 87.881416,45.4160462 C113.62583,55.8460613 135.193005,65.5911406 156.764547,80.1976329 C166.502684,87.1539423 176.939237,100.372725 189.462254,103.850881 L204.076082,103.850881 C226.341638,108.716782 251.38767,105.242965 272.260778,111.501063 C309.14018,123.323274 342.531792,140.718461 372.453769,159.501433 C463.602383,217.237799 538.740295,299.325903 589.535397,397.408412 C597.885543,413.402655 601.359979,428.017933 609.01611,444.710507 C623.629955,478.798222 641.71822,513.579793 656.327682,546.969267 C670.937104,579.660396 684.852516,613.054344 705.725569,640.185798 C716.166545,654.787906 757.9085,662.442465 776.694947,670.097059 C790.610374,676.355119 812.182045,681.923722 824.704952,689.573879 C848.358615,704.17595 872.01662,720.877349 894.282102,736.875955 C905.41702,745.220039 940.201242,762.615237 942.292107,776.523473 L942.292287,776.523401 L942.292287,776.523401 Z" id="Path" fill="#FFFFFF" fill-rule="nonzero"></path>

                <path d="M232.698204,172 C220.797326,172 212.400896,173.401011 204,175.493685 C204,175.49005 204,176.194182 204,176.890262 L205.400912,176.890262 C211.004469,188.053963 220.797362,195.732888 227.797346,205.49998 C233.400921,216.663685 238.297331,227.83186 243.900906,239 C244.599101,238.299485 245.297334,237.603424 245.297334,237.603424 C255.103571,230.620561 260,219.456856 260,202.71128 C255.797319,197.825489 255.099087,192.939717 251.599104,188.053926 C247.400871,181.071049 238.297295,177.586305 232.698204,172 L232.698204,172 L232.698204,172 Z" id="Path" fill="#FFFFFF" fill-rule="nonzero"></path>

            </g>

        </g>

    </g>

</svg>
